<svg xmlns="http://www.w3.org/2000/svg" width="20" height="20" viewBox="0 0 20 20">
  <g id="broken-link-chain-svgrepo-com" transform="translate(-0.003)">
    <g id="Group_597" data-name="Group 597" transform="translate(0.003)">
      <g id="Group_596" data-name="Group 596">
        <path id="Path_23526" data-name="Path 23526" d="M8.3,186.286l-2.357,2.357a2.5,2.5,0,1,1-3.536-3.535l4.714-4.714a2.5,2.5,0,0,1,3.535,0,.833.833,0,1,0,1.179-1.179,4.166,4.166,0,0,0-5.892,0l-4.714,4.714a4.166,4.166,0,1,0,5.893,5.892l2.357-2.357A.833.833,0,0,0,8.3,186.286Z" transform="translate(-0.011 -171.042)" fill="#92929d"/>
        <path id="Path_23527" data-name="Path 23527" d="M202.262,7.121a4.166,4.166,0,0,0-5.893-5.892l-2.828,2.828a.833.833,0,0,0,1.179,1.179l2.827-2.827a2.5,2.5,0,1,1,3.536,3.535L195.9,11.127a2.5,2.5,0,0,1-3.535,0,.833.833,0,0,0-1.179,1.179,4.166,4.166,0,0,0,5.892,0Z" transform="translate(-183.482 -0.008)" fill="#92929d"/>
        <path id="Path_23528" data-name="Path 23528" d="M364.1,362.922a.833.833,0,0,0-1.179,1.179l2.5,2.5a.833.833,0,1,0,1.179-1.179Z" transform="translate(-348.514 -348.511)" fill="#92929d"/>
        <path id="Path_23529" data-name="Path 23529" d="M45.4,46.576A.833.833,0,0,0,46.579,45.4l-2.5-2.5A.833.833,0,0,0,42.9,44.074Z" transform="translate(-40.989 -40.986)" fill="#92929d"/>
        <path id="Path_23530" data-name="Path 23530" d="M408.67,320h-2.5a.833.833,0,1,0,0,1.667h2.5a.833.833,0,1,0,0-1.667Z" transform="translate(-389.504 -307.5)" fill="#92929d"/>
        <path id="Path_23531" data-name="Path 23531" d="M150.17,4.167A.833.833,0,0,0,151,3.333V.833a.833.833,0,1,0-1.667,0v2.5A.833.833,0,0,0,150.17,4.167Z" transform="translate(-143.504)" fill="#92929d"/>
        <path id="Path_23532" data-name="Path 23532" d="M.836,151h2.5a.833.833,0,0,0,0-1.667H.836a.833.833,0,0,0,0,1.667Z" transform="translate(-0.003 -143.501)" fill="#92929d"/>
        <path id="Path_23533" data-name="Path 23533" d="M320.836,405.333a.833.833,0,0,0-.833.833v2.5a.833.833,0,1,0,1.667,0v-2.5A.833.833,0,0,0,320.836,405.333Z" transform="translate(-307.503 -389.5)" fill="#92929d"/>
      </g>
    </g>
  </g>
</svg>
