<svg xmlns="http://www.w3.org/2000/svg" width="24" height="19.2" viewBox="0 0 24 19.2">
  <path id="Icon_awesome-user-tag" data-name="Icon awesome-user-tag" d="M23.649,13.685,20.262,10.3a2.4,2.4,0,0,0-1.7-.7H15.59a1.2,1.2,0,0,0-1.2,1.2v2.97a2.392,2.392,0,0,0,.7,1.7l3.386,3.383a1.2,1.2,0,0,0,1.7,0l3.469-3.469a1.194,1.194,0,0,0,0-1.7ZM16.793,12.9a.9.9,0,1,1,.9-.9.9.9,0,0,1-.9.9ZM8.4,9.6A4.8,4.8,0,1,0,3.6,4.8,4.8,4.8,0,0,0,8.4,9.6Zm4.793,4.17V11.026a5.045,5.045,0,0,0-1.433-.233h-.626a6.528,6.528,0,0,1-5.468,0H5.04A5.047,5.047,0,0,0,0,15.837V17.4a1.8,1.8,0,0,0,1.8,1.8H15a1.792,1.792,0,0,0,1.421-.709l-2.175-2.175a3.577,3.577,0,0,1-1.054-2.546Z" fill="#1877f2"/>
</svg>
