<svg id="Group_609" data-name="Group 609" xmlns="http://www.w3.org/2000/svg" xmlns:xlink="http://www.w3.org/1999/xlink" width="18" height="17.607" viewBox="0 0 18 17.607">
  <defs>
    <clipPath id="clip-path">
      <rect id="Rectangle_184" data-name="Rectangle 184" width="18" height="17.607" fill="#f5474b"/>
    </clipPath>
  </defs>
  <g id="Group_609-2" data-name="Group 609" clip-path="url(#clip-path)">
    <path id="Path_23537" data-name="Path 23537" d="M17.872,4.849a3.917,3.917,0,0,0-1.037-2.4,3.917,3.917,0,0,0-2.4-1.037c-.2-.026-.4-.047-.619-.064V.629a.628.628,0,0,0-1.256,0v.664c-.555-.01-1.177-.01-1.884-.01H7.326c-.707,0-1.328,0-1.884.01V.629a.628.628,0,1,0-1.256,0v.717c-.217.017-.423.037-.619.064a3.917,3.917,0,0,0-2.4,1.037,3.917,3.917,0,0,0-1.037,2.4A30.664,30.664,0,0,0,0,8.607v1.674A30.664,30.664,0,0,0,.128,14.04a3.917,3.917,0,0,0,1.037,2.4,3.917,3.917,0,0,0,2.4,1.037,30.666,30.666,0,0,0,3.758.128h3.349a30.666,30.666,0,0,0,3.758-.128,3.917,3.917,0,0,0,2.4-1.037,3.917,3.917,0,0,0,1.037-2.4A30.665,30.665,0,0,0,18,10.282V8.607a30.665,30.665,0,0,0-.128-3.758M7.326,2.538h3.349c2.98,0,4.476,0,5.273.8a3.255,3.255,0,0,1,.729,2.133H1.324a3.255,3.255,0,0,1,.729-2.133c.8-.8,2.293-.8,5.273-.8m9.419,7.744c0,2.98,0,4.476-.8,5.273s-2.293.8-5.273.8H7.326c-2.98,0-4.476,0-5.273-.8s-.8-2.293-.8-5.273V8.607c0-.708,0-1.333.011-1.884H16.733c.011.551.011,1.175.011,1.884Z" transform="translate(0 -0.001)" fill="#f5474b"/>
    <path id="Path_23538" data-name="Path 23538" d="M435.217,417.667a1.884,1.884,0,1,0,1.884,1.884,1.886,1.886,0,0,0-1.884-1.884m0,2.512a.628.628,0,1,1,.628-.628.629.629,0,0,1-.628.628" transform="translate(-422.449 -407.177)" fill="#f5474b"/>
  </g>
</svg>
