<svg xmlns="http://www.w3.org/2000/svg" width="18" height="18" viewBox="0 0 18 18">
  <path id="_5365678_fb_facebook_facebook_logo_icon" data-name="5365678_fb_facebook_facebook logo_icon" d="M15.8,0A2.2,2.2,0,0,1,18,2.2V15.8A2.2,2.2,0,0,1,15.8,18H12.058V11.218H14.4l.446-2.9H12.058V6.428A1.452,1.452,0,0,1,13.7,4.859h1.267V2.386a15.454,15.454,0,0,0-2.249-.2,3.546,3.546,0,0,0-3.8,3.91V8.313H6.366v2.9H8.918V18H2.2A2.2,2.2,0,0,1,0,15.8V2.2A2.2,2.2,0,0,1,2.2,0H15.8Z" fill="#1777f2" fill-rule="evenodd"/>
</svg>
