<svg xmlns="http://www.w3.org/2000/svg" width="17.642" height="18" viewBox="0 0 17.642 18">
  <g id="_7123025_logo_google_g_icon" data-name="7123025_logo_google_g_icon" transform="translate(-30.025 -29.098)">
    <path id="Path_23504" data-name="Path 23504" d="M84.547,68.623A11.257,11.257,0,0,0,84.39,66.8H75.9v3.471h4.863A4.091,4.091,0,0,1,78.959,73l2.9,2.255a8.85,8.85,0,0,0,2.686-6.627Z" transform="translate(-36.88 -30.309)" fill="#4280ef"/>
    <path id="Path_23505" data-name="Path 23505" d="M42.939,91.155A8.61,8.61,0,0,0,48.9,88.978L46,86.743A5.459,5.459,0,0,1,37.88,83.9L34.9,86.194A8.991,8.991,0,0,0,42.939,91.155Z" transform="translate(-3.919 -44.057)" fill="#34a353"/>
    <path id="Path_23506" data-name="Path 23506" d="M33.961,60.165a5.467,5.467,0,0,1,0-3.451L30.981,54.4a9.012,9.012,0,0,0,0,8.078Z" transform="translate(0 -20.341)" fill="#f6b704"/>
    <path id="Path_23507" data-name="Path 23507" d="M42.939,32.667A4.91,4.91,0,0,1,46.39,34.02l2.569-2.588A8.661,8.661,0,0,0,42.939,29.1,8.991,8.991,0,0,0,34.9,34.059l2.98,2.314A5.384,5.384,0,0,1,42.939,32.667Z" transform="translate(-3.919)" fill="#e54335"/>
  </g>
</svg>
