<svg xmlns="http://www.w3.org/2000/svg" xmlns:xlink="http://www.w3.org/1999/xlink" width="208.106" height="52" viewBox="0 0 208.106 52">
  <defs>
    <clipPath id="clip-path">
      <rect id="Rectangle_182" data-name="Rectangle 182" width="208.106" height="52" fill="none"/>
    </clipPath>
  </defs>
  <g id="Group_547" data-name="Group 547" transform="translate(0 0)">
    <path id="Path_23517" data-name="Path 23517" d="M91.493,19.753h5.315V43.412H91.493Zm15.524,23.659L98.883,32.36H95.609l9.917-12.607h6.093l-8.913,11.311-.064-2.3,10.825,14.649Z" transform="translate(-24.434 -5.275)" fill="#fff"/>
    <g id="Group_548" data-name="Group 548" transform="translate(0 0)">
      <g id="Group_547-2" data-name="Group 547" clip-path="url(#clip-path)">
        <path id="Path_23518" data-name="Path 23518" d="M122.225,25.191h7.584v3.857h-7.584Zm4.408-1.75a2.784,2.784,0,0,1-2.156-.762,2.744,2.744,0,0,1-.7-1.928,2.853,2.853,0,1,1,5.7,0,2.744,2.744,0,0,1-.7,1.928,2.784,2.784,0,0,1-2.155.762m-2.042,1.75h5.218V42.952h-5.218Z" transform="translate(-32.641 -4.815)" fill="#fff"/>
        <path id="Path_23519" data-name="Path 23519" d="M139.072,45.361V27.6h4.148v7.616h-.292a12.756,12.756,0,0,1,.7-4.537,5.391,5.391,0,0,1,2.123-2.722,6.331,6.331,0,0,1,3.468-.907h.226a5.748,5.748,0,0,1,4.748,2.025q1.637,2.026,1.637,6.141V45.361H150.61V34.925a3.276,3.276,0,0,0-.826-2.318,2.922,2.922,0,0,0-2.252-.891,3.149,3.149,0,0,0-2.351.907,3.275,3.275,0,0,0-.891,2.4V45.361Z" transform="translate(-37.14 -7.224)" fill="#fff"/>
        <path id="Path_23520" data-name="Path 23520" d="M174.825,44a8.4,8.4,0,0,1-3.4-.681,7.873,7.873,0,0,1-2.674-1.9,8.629,8.629,0,0,1-1.734-2.868,10.132,10.132,0,0,1-.616-3.565V34.24a10.648,10.648,0,0,1,.583-3.565,8.881,8.881,0,0,1,1.67-2.9,7.613,7.613,0,0,1,2.609-1.944,8.089,8.089,0,0,1,3.4-.7,7.108,7.108,0,0,1,3.695.924,6.244,6.244,0,0,1,2.43,2.723,10.992,10.992,0,0,1,.972,4.424L180.4,31.94V19.753h5.219V43.412H181.5V36.055h.713a9.832,9.832,0,0,1-1.053,4.311,6.642,6.642,0,0,1-2.577,2.706,7.459,7.459,0,0,1-3.759.924m1.329-4.343a4.554,4.554,0,0,0,2.171-.535,4.009,4.009,0,0,0,1.6-1.572,4.9,4.9,0,0,0,.6-2.495v-1.2a4.322,4.322,0,0,0-.616-2.382,4.183,4.183,0,0,0-1.621-1.475,4.671,4.671,0,0,0-2.172-.518,4.234,4.234,0,0,0-2.317.648,4.48,4.48,0,0,0-1.6,1.8,6.463,6.463,0,0,0,0,5.364,4.224,4.224,0,0,0,1.621,1.75,4.476,4.476,0,0,0,2.334.616" transform="translate(-44.438 -5.275)" fill="#fff"/>
        <path id="Path_23521" data-name="Path 23521" d="M205.664,43.412l7.811-23.659h8.589l8.1,23.659h-5.51L218.11,23.448l1.686.68h-4.181l1.75-.68L210.98,43.412Zm5.932-5.866,1.621-4.408h9.269l1.653,4.408Z" transform="translate(-54.924 -5.275)" fill="#fff"/>
        <path id="Path_23522" data-name="Path 23522" d="M250.059,45.986a9.514,9.514,0,0,1-4.018-.778,8.316,8.316,0,0,1-2.82-2.074,8.744,8.744,0,0,1-1.7-2.933,10.268,10.268,0,0,1-.567-3.387V36.2a10.476,10.476,0,0,1,.583-3.484,8.776,8.776,0,0,1,1.733-2.965,8.083,8.083,0,0,1,2.853-2.041,9.648,9.648,0,0,1,3.905-.746,9.364,9.364,0,0,1,4.246.924,7.5,7.5,0,0,1,2.949,2.576,7.581,7.581,0,0,1,1.232,3.824h-5.088a3.274,3.274,0,0,0-.972-2.057,3.238,3.238,0,0,0-2.367-.826,3.474,3.474,0,0,0-2.155.647,3.836,3.836,0,0,0-1.28,1.8,7.769,7.769,0,0,0-.421,2.675,8.015,8.015,0,0,0,.389,2.577,3.55,3.55,0,0,0,1.247,1.782,3.708,3.708,0,0,0,2.252.632,3.835,3.835,0,0,0,1.766-.372,2.887,2.887,0,0,0,1.151-1.037,3.911,3.911,0,0,0,.55-1.54h5.057a7.315,7.315,0,0,1-1.232,3.873,7.765,7.765,0,0,1-3.014,2.609,9.436,9.436,0,0,1-4.278.94" transform="translate(-64.348 -7.2)" fill="#fff"/>
        <path id="Path_23523" data-name="Path 23523" d="M266.555,26.053h12.737v3.825H266.555ZM276.8,44.073a11.576,11.576,0,0,1-4.343-.681,4.547,4.547,0,0,1-2.43-2.252,9.709,9.709,0,0,1-.778-4.261l.032-15.622h4.829V37.073A2.611,2.611,0,0,0,274.771,39a2.564,2.564,0,0,0,1.9.664h2.625v4.408Z" transform="translate(-71.186 -5.677)" fill="#fff"/>
        <path id="Path_23524" data-name="Path 23524" d="M34.2,59.972l-7.974,7.974H43.431l-7.975-7.974a.89.89,0,0,0-1.258,0" transform="translate(-7.003 -15.946)" fill="#d4494c"/>
        <path id="Path_23525" data-name="Path 23525" d="M46.842,0H5.158A5.158,5.158,0,0,0,0,5.158V46.842A5.158,5.158,0,0,0,5.158,52h5.293L22.838,39.613a.891.891,0,0,0,0-1.258L19.77,35.288a.89.89,0,0,0-1.258,0l-2.194,2.2a.889.889,0,0,0-.261.63v3.846a.894.894,0,0,1-.261.63L11.386,47a.89.89,0,0,1-1.519-.628L9.821,16.938a.889.889,0,0,1,.889-.891h4.5a.889.889,0,0,1,.889.89v9.819a.891.891,0,0,0,1.52.63l10.995-11a.892.892,0,0,1,.63-.261h6.242a.89.89,0,0,1,.63,1.519l-12.006,12a.89.89,0,0,0,0,1.258L39.162,45.966a.89.89,0,0,0,1.519-.63V32.69a.89.89,0,0,0-1.519-.629l-4.233,4.233a.89.89,0,0,1-1.258,0l-3.11-3.11a.89.89,0,0,1,.012-1.27L45.438,17.583a.89.89,0,0,1,1.508.641V51.995A5.156,5.156,0,0,0,52,46.842V5.158A5.157,5.157,0,0,0,46.842,0" transform="translate(0 0)" fill="#f5474b"/>
      </g>
    </g>
  </g>
</svg>
