<svg xmlns="http://www.w3.org/2000/svg" width="16.206" height="20" viewBox="0 0 16.206 20">
  <path id="Union_2" data-name="Union 2" d="M5.345,17.808a1.184,1.184,0,0,1,.444-1.2H1.507A1.5,1.5,0,0,1,.306,14.2a6.1,6.1,0,0,1,.488-.552c.691-.723,1.552-1.621,1.552-4.913A8.973,8.973,0,0,1,3.64,3.63a4.814,4.814,0,0,1,2.755-2A1.712,1.712,0,0,1,8.09,0h.029A1.712,1.712,0,0,1,9.813,1.625a4.8,4.8,0,0,1,2.753,2,8.969,8.969,0,0,1,1.3,5.105c0,3.3.862,4.2,1.555,4.917a6,6,0,0,1,.485.547A1.5,1.5,0,0,1,14.716,16.6H10.39a1.193,1.193,0,0,1,.213.206,1.178,1.178,0,0,1,.233,1A2.665,2.665,0,0,1,8.09,20,2.666,2.666,0,0,1,5.345,17.808Zm2.3-.512a.634.634,0,0,0,.109.26c.023.025.091.086.333.086.1,0,.269-.01.332-.082a.641.641,0,0,0,.111-.267,1.165,1.165,0,0,1,.439-.689H7.207A1.17,1.17,0,0,1,7.648,17.3ZM7.066,3.889a2.464,2.464,0,0,0-1.488,1.07A6.7,6.7,0,0,0,4.69,8.733a11.2,11.2,0,0,1-.72,4.381,6.174,6.174,0,0,1-.62,1.132h9.5a6.422,6.422,0,0,1-.622-1.131,11.207,11.207,0,0,1-.72-4.382,6.7,6.7,0,0,0-.886-3.773A2.464,2.464,0,0,0,9.131,3.89,2.312,2.312,0,0,1,8.1,3.36,2.266,2.266,0,0,1,7.066,3.889Z" fill="#92929d"/>
</svg>
