<svg id="Icon_feather-shopping-cart" data-name="Icon feather-shopping-cart" xmlns="http://www.w3.org/2000/svg" width="20" height="20" viewBox="0 0 20 20">
  <path id="Path_23536" data-name="Path 23536" d="M12.167,28.5A1.741,1.741,0,1,1,10.5,30.239,1.706,1.706,0,0,1,12.167,28.5Z" transform="translate(-4.667 -11.978)" fill="#92929d"/>
  <path id="Path_23537" data-name="Path 23537" d="M28.667,28.5A1.741,1.741,0,1,1,27,30.239,1.706,1.706,0,0,1,28.667,28.5Z" transform="translate(-12 -11.978)" fill="#92929d"/>
  <path id="Path_23538" data-name="Path 23538" d="M16.2,14.783H8.074a2.525,2.525,0,0,1-2.491-2.1L4.191,5.425q-.008-.036-.014-.073L3.484,1.739H.833A.852.852,0,0,1,0,.87.852.852,0,0,1,.833,0H4.167a.843.843,0,0,1,.817.7l.7,3.649H19.167a.82.82,0,0,1,.642.315.9.9,0,0,1,.177.717l-1.333,7.3v.007A2.527,2.527,0,0,1,16.2,14.783ZM8.067,13.043H16.2a.842.842,0,0,0,.817-.7l1.144-6.259H6.017l1.2,6.255a.842.842,0,0,0,.834.7Z" transform="translate(0 0)" fill="#92929d"/>
</svg>
