<svg xmlns="http://www.w3.org/2000/svg" width="20" height="17.667" viewBox="0 0 20 17.667">
  <path id="Icon_feather-heart" data-name="Icon feather-heart" d="M15.145,3a5.677,5.677,0,0,1,4.014,9.692L11.44,20.409a.873.873,0,0,1-1.235,0L2.486,12.689a5.677,5.677,0,1,1,8.029-8.029l.308.308.308-.308A5.639,5.639,0,0,1,15.145,3ZM10.823,18.556l7.1-7.1A3.931,3.931,0,1,0,12.366,5.9l-.926.926a.873.873,0,0,1-1.235,0L9.28,5.9a3.931,3.931,0,1,0-5.559,5.559Z" transform="translate(-0.823 -2.997)" fill="#92929d"/>
</svg>
