<svg xmlns="http://www.w3.org/2000/svg" width="17.5" height="14" viewBox="0 0 17.5 14">
  <path id="Icon_awesome-eye-slash" data-name="Icon awesome-eye-slash" d="M8.75,10.937A3.923,3.923,0,0,1,4.843,7.3L1.974,5.081a9.113,9.113,0,0,0-1,1.52.885.885,0,0,0,0,.8A8.77,8.77,0,0,0,8.75,12.25a8.493,8.493,0,0,0,2.13-.286l-1.419-1.1A3.941,3.941,0,0,1,8.75,10.937Zm8.581,1.589L14.308,10.19A9.058,9.058,0,0,0,16.53,7.4a.885.885,0,0,0,0-.8A8.77,8.77,0,0,0,8.75,1.75,8.426,8.426,0,0,0,4.722,2.781L1.243.092A.437.437,0,0,0,.629.169L.092.86a.437.437,0,0,0,.077.614L16.257,13.908a.437.437,0,0,0,.614-.077l.537-.691a.437.437,0,0,0-.077-.614ZM12.307,8.643l-1.075-.831A2.591,2.591,0,0,0,8.058,4.478a1.3,1.3,0,0,1,.255.771,1.275,1.275,0,0,1-.042.273L6.258,3.968A3.891,3.891,0,0,1,8.75,3.062,3.935,3.935,0,0,1,12.687,7a3.844,3.844,0,0,1-.38,1.644Z" transform="translate(0 0)" fill="#171725"/>
</svg>
