<svg id="ic_Dashboard" xmlns="http://www.w3.org/2000/svg" width="20" height="19.998" viewBox="0 0 20 19.998">
  <path id="Shape" d="M16.362,20H3.636A3.64,3.64,0,0,1,0,16.362V3.636A3.64,3.64,0,0,1,3.636,0H16.362A3.64,3.64,0,0,1,20,3.636v9.035a.832.832,0,0,1,0,.11v3.581A3.64,3.64,0,0,1,16.362,20ZM14.545,9.466h0L11.108,12.9l4.75,5.278h.5a1.82,1.82,0,0,0,1.818-1.818V13.1L14.545,9.466ZM7.237,11.32h0L1.851,16.707A1.819,1.819,0,0,0,3.636,18.18h9.777L7.237,11.32Zm-3.6-9.5A1.82,1.82,0,0,0,1.818,3.636V14.168L6.629,9.357a.9.9,0,0,1,.643-.267.911.911,0,0,1,.676.3L9.89,11.549,13.9,7.538a.909.909,0,0,1,1.285,0l2.994,2.993v-6.9a1.82,1.82,0,0,0-1.818-1.818ZM6.817,7.272A2.273,2.273,0,1,1,9.09,5,2.275,2.275,0,0,1,6.817,7.272Zm0-2.727A.454.454,0,1,0,7.272,5,.455.455,0,0,0,6.817,4.545Z" transform="translate(0 0)" fill="#92929d"/>
</svg>
