<svg xmlns="http://www.w3.org/2000/svg" width="16.001" height="16" viewBox="0 0 16.001 16">
  <path id="Icon_ionic-ios-key" data-name="Icon ionic-ios-key" d="M7.957,9.917a4.344,4.344,0,0,1,1.438.158c1.946-1.658,7.088-6.035,7.481-6.442a.776.776,0,0,1,.577-.258,1.283,1.283,0,0,1,.819.369c.265.254,1.269,1.338,1.077,1.538-.577.592-.731.712-.969.954C18.023,6.6,17.292,6.2,17,6.325a.567.567,0,0,0-.4.481,7.188,7.188,0,0,0,.115.912.962.962,0,0,1-.354.731.809.809,0,0,1-.6.335c-.346.008-.8-.492-1.169-.119s.238.912.192,1.308a1.452,1.452,0,0,1-.831.927c-.235.05-.838-.45-1.181-.373a.8.8,0,0,0-.423.438c-.038.177.265.962.227,1.138a2.7,2.7,0,0,1-.4.669,4.332,4.332,0,0,1,.362,1.835A4.68,4.68,0,0,1,7.95,19.375a4.674,4.674,0,0,1-4.577-4.769A4.61,4.61,0,0,1,7.957,9.917Zm-.892,7a1.231,1.231,0,1,0-1.231-1.231A1.229,1.229,0,0,0,7.065,16.913Z" transform="translate(-3.373 -3.375)" fill="#f5474b"/>
</svg>
