<svg xmlns="http://www.w3.org/2000/svg" width="20" height="18.859" viewBox="0 0 20 18.859">
  <path id="Icon" d="M16.439,32.411a1.147,1.147,0,0,1-1.14,1.14H12.14A1.138,1.138,0,0,1,11,32.411V23.459a1.138,1.138,0,0,1,1.14-1.14h3.143a1.138,1.138,0,0,1,1.14,1.14v8.952Zm13.374-7.026a1.567,1.567,0,0,1,.247,2.2,1.511,1.511,0,0,1-.863.539,1.55,1.55,0,0,1,.247,2.188,1.6,1.6,0,0,1-.878.555,1.571,1.571,0,0,1-.986,2.789l-8.859-.092a1.138,1.138,0,0,1-1.14-1.14V23.459c0-1.417,4.53-4.021,4.761-5.423.154-.924-.046-3.236.57-3.236,1.063,0,2.4.4,2.4,2.743a13.14,13.14,0,0,1-1.356,4.745h5.485A1.552,1.552,0,0,1,31,23.844a1.5,1.5,0,0,1-1.186,1.541Z" transform="translate(-11 -14.8)" fill="#f5474b"/>
</svg>
