<svg xmlns="http://www.w3.org/2000/svg" width="18" height="18" viewBox="0 0 18 18">
  <path id="Icon_metro-my-location" data-name="Icon metro-my-location" d="M12.856,9.583a3.273,3.273,0,1,0,3.273,3.273A3.272,3.272,0,0,0,12.856,9.583Zm7.315,2.455a7.359,7.359,0,0,0-6.5-6.5V3.856H12.038V5.542a7.359,7.359,0,0,0-6.5,6.5H3.856v1.636H5.542a7.359,7.359,0,0,0,6.5,6.5v1.685h1.636V20.171a7.359,7.359,0,0,0,6.5-6.5h1.685V12.038H20.171Zm-7.315,6.545a5.727,5.727,0,1,1,5.727-5.727A5.728,5.728,0,0,1,12.856,18.583Z" transform="translate(-3.856 -3.856)" fill="#f5474b"/>
</svg>
