<svg xmlns="http://www.w3.org/2000/svg" width="20" height="19.542" viewBox="0 0 20 19.542">
  <g id="chain-links-svgrepo-com" transform="translate(0 -0.365)">
    <path id="Path_20" data-name="Path 20" d="M24.386,3.736,21.829,1.205a2.942,2.942,0,0,0-4.1-.013L14.886,3.961a2.813,2.813,0,0,0-.013,4.029L16.5,6.432a1.458,1.458,0,0,1,.44-1.457l1.806-1.76a1.471,1.471,0,0,1,2.054.006L22.33,4.738a1.407,1.407,0,0,1-.006,2.015L20.519,8.515a1.68,1.68,0,0,1-1.5.446L17.434,10.52a2.94,2.94,0,0,0,4.1.013l2.835-2.766A2.811,2.811,0,0,0,24.386,3.736Z" transform="translate(-5.232 0)" fill="#f5474b"/>
    <path id="Path_21" data-name="Path 21" d="M8.764,18.915a1.634,1.634,0,0,1-.472,1.493L6.606,22.055a1.5,1.5,0,0,1-2.09-.008L2.95,20.5a1.436,1.436,0,0,1,.008-2.054L4.645,16.8a1.546,1.546,0,0,1,1.518-.432L7.79,14.759a3,3,0,0,0-4.182-.013L.872,17.418a2.869,2.869,0,0,0-.013,4.107L3.464,24.1a3,3,0,0,0,4.182.011l2.736-2.672a2.87,2.87,0,0,0,.013-4.106Z" transform="translate(0 -5.048)" fill="#f5474b"/>
    <path id="Path_22" data-name="Path 22" d="M10.968,16.954a.992.992,0,0,0,1.4.005l4.675-4.651a.989.989,0,1,0-1.394-1.4l-4.677,4.65A.991.991,0,0,0,10.968,16.954Z" transform="translate(-3.983 -3.822)" fill="#f5474b"/>
  </g>
</svg>
