<svg xmlns="http://www.w3.org/2000/svg" width="23" height="23" viewBox="0 0 23 23">
  <g id="Group_688" data-name="Group 688" transform="translate(-1423 -27.5)">
    <g id="Group_42" data-name="Group 42" transform="translate(1423 28.5)">
      <path id="Combined_Shape" data-name="Combined Shape" d="M3.222,18.778A11,11,0,1,1,18.778,3.222a11.007,11.007,0,0,1,2.1,12.622l.757,3.406a2,2,0,0,1-1.518,2.386,2,2,0,0,1-.868,0l-3.406-.757a11.007,11.007,0,0,1-12.622-2.1ZM2,11a9,9,0,0,0,13.237,7.943,1.007,1.007,0,0,1,.472-.118,1.024,1.024,0,0,1,.216.023l3.758.835-.835-3.758a1,1,0,0,1,.094-.688A9,9,0,1,0,2,11Zm10,0a2,2,0,1,1,2,2A2,2,0,0,1,12,11ZM6,11a2,2,0,1,1,2,2A2,2,0,0,1,6,11Z" fill="#92929d"/>
    </g>
    <circle id="Notification" cx="4" cy="4" r="4" transform="translate(1438 27.5)" fill="#fc5a5a"/>
  </g>
</svg>
