<svg xmlns="http://www.w3.org/2000/svg" width="748.669" height="828" viewBox="0 0 748.669 828">
  <g id="Group_503" data-name="Group 503" transform="translate(0 0)">
    <rect id="Rectangle_100" data-name="Rectangle 100" width="748.669" height="827.753" fill="#171725"/>
    <path id="Path_23427" data-name="Path 23427" d="M2507.442-629.769l66.767-34.947a3.5,3.5,0,0,0,1.879-3.1V-779.465a3.5,3.5,0,0,0-5.128-3.1l-66.767,34.947a3.5,3.5,0,0,0-1.879,3.1v111.645A3.5,3.5,0,0,0,2507.442-629.769Z" transform="translate(3066.848 -575.645) rotate(180)" fill="#20202e" opacity="0.65"/>
    <path id="Path_23426" data-name="Path 23426" d="M2242.957-582.867V-720.716a5.828,5.828,0,0,1,3.126-5.165l165.017-87.5a4.437,4.437,0,0,1,6.5,3.931l-.638,226.587Z" transform="translate(2709.573 -582.868) rotate(180)" fill="#0d0d17"/>
    <path id="Path_35" data-name="Path 35" d="M1931.131-1410.508l50.924-26.655a3.949,3.949,0,0,0,2.119-3.5v-86.41a3.95,3.95,0,0,0-5.781-3.5l-50.925,26.654a3.951,3.951,0,0,0-2.118,3.5v86.41A3.95,3.95,0,0,0,1931.131-1410.508Z" transform="translate(-1404.021 1550.576)" fill="#0d0d17"/>
    <path id="Path_23539" data-name="Path 23539" d="M2507.442-629.769l66.767-34.947a3.5,3.5,0,0,0,1.879-3.1V-779.465a3.5,3.5,0,0,0-5.128-3.1l-66.767,34.947a3.5,3.5,0,0,0-1.879,3.1v111.645A3.5,3.5,0,0,0,2507.442-629.769Z" transform="translate(-2461.619 1403.645)" fill="#20202e"/>
    <path id="Path_23540" data-name="Path 23540" d="M1952.1-650.746l48.791-23.239a3.785,3.785,0,0,0,2.03-3.353v-73.594a3.785,3.785,0,0,0-5.54-3.353l-48.792,23.239a3.784,3.784,0,0,0-2.029,3.353V-654.1A3.785,3.785,0,0,0,1952.1-650.746Z" transform="translate(-1410.982 1395.949)" fill="#20202e"/>
    <path id="Path_23541" data-name="Path 23541" d="M2242.957-582.867V-720.716a5.828,5.828,0,0,1,3.126-5.165l165.017-87.5a4.437,4.437,0,0,1,6.5,3.931l-.638,226.587Z" transform="translate(-2104.345 1410.868)" fill="#0d0d17"/>
  </g>
</svg>
