<svg xmlns="http://www.w3.org/2000/svg" width="24" height="24" viewBox="0 0 24 24">
  <g id="Group_698" data-name="Group 698" transform="translate(-14263.442 -2836.5)">
    <path id="Path_23558" data-name="Path 23558" d="M350.812,20.058a.94.94,0,0,1-.588-1.674l1.364-1.091c-2.394-.006-3.776-.081-4.779-1.085-1.085-1.085-1.085-2.613-1.085-5.385V9.44a.94.94,0,1,1,1.88,0v1.383c0,2.441.022,3.542.534,4.055.469.468,1.427.527,3.448.534l-1.362-1.09a.94.94,0,0,1,1.175-1.468l3.44,2.752a.92.92,0,0,1,.093.081.939.939,0,0,1,.185.262l0,.007h0v0h0v0h0v0h0v0h0a.939.939,0,0,1,.051.616h0v0h0v0h0v0h0v0h0v0h0a.94.94,0,0,1-.334.5L351.4,19.852a.937.937,0,0,1-.587.206" transform="translate(13932.152 2828)" fill="#f5474b"/>
    <path id="Path_23559" data-name="Path 23559" d="M242.566,32.5c-3.054,0-7.417-.986-11.777-5.346-4.621-4.621-5.453-9.246-5.336-12.312a7.2,7.2,0,0,1,2.392-4.771,5.232,5.232,0,0,1,4.378-1.525,4.477,4.477,0,0,1,3.329,2.255h0l.9,1.608a4.856,4.856,0,0,1-.929,5.735c-.3.371-.38,1.419,1.24,3.04s2.669,1.544,3.04,1.24a4.856,4.856,0,0,1,5.735-.929l1.608.9a4.475,4.475,0,0,1,2.255,3.328,5.232,5.232,0,0,1-1.525,4.378,7.2,7.2,0,0,1-4.771,2.391q-.26.01-.535.01m-11.012-22.12a3.4,3.4,0,0,0-2.38,1.02,5.637,5.637,0,0,0-1.842,3.513c-.1,2.692.646,6.77,4.787,10.911s8.219,4.888,10.911,4.787a5.638,5.638,0,0,0,3.513-1.842,3.343,3.343,0,0,0,.992-2.789,2.578,2.578,0,0,0-1.309-1.946l-1.608-.9a2.974,2.974,0,0,0-3.507.634c-.09.09-2.251,2.172-5.681-1.258s-1.351-5.587-1.262-5.677a2.976,2.976,0,0,0,.638-3.51l-.9-1.608a2.577,2.577,0,0,0-1.946-1.309,2.96,2.96,0,0,0-.41-.028M239.8,22.429l-.015.015.015-.015m-4.281-4.279-.014.014.014-.014" transform="translate(14038 2827.997)" fill="#171725"/>
  </g>
</svg>
