<svg xmlns="http://www.w3.org/2000/svg" width="24" height="24" viewBox="0 0 24 24">
  <g id="Group_696" data-name="Group 696" transform="translate(-1423 -27.5)">
    <g id="Group_42" data-name="Group 42" transform="translate(1423 28.543)">
      <path id="Combined_Shape" data-name="Combined Shape" d="M11.478,22.956A11.478,11.478,0,0,1,3.362,3.362a11.478,11.478,0,0,1,19.594,8.116,11.354,11.354,0,0,1-1.17,5.054l.79,3.554a2.086,2.086,0,0,1-2.49,2.49l-3.554-.79A11.355,11.355,0,0,1,11.478,22.956Zm0-20.869A9.391,9.391,0,1,0,15.9,19.766a1.049,1.049,0,0,1,.718-.1l3.921.872-.872-3.921a1.05,1.05,0,0,1,.1-.718A9.395,9.395,0,0,0,11.478,2.087Z" transform="translate(0 0)" fill="#171725"/>
    </g>
    <circle id="Notification" cx="4.174" cy="4.174" r="4.174" transform="translate(1438.652 27.5)" fill="#f5474b"/>
    <circle id="Oval" cx="2.087" cy="2.087" r="2.087" transform="translate(1429.261 37.935)" fill="#f5474b"/>
    <circle id="Oval_Copy_5" data-name="Oval Copy 5" cx="2.087" cy="2.087" r="2.087" transform="translate(1435.521 37.935)" fill="#f5474b"/>
  </g>
</svg>
