<svg xmlns="http://www.w3.org/2000/svg" width="24" height="28" viewBox="0 0 24 28">
  <g id="Group_699" data-name="Group 699" transform="translate(-14038 -2836.5)">
    <path id="Path_23552" data-name="Path 23552" d="M59.938,85.9A4.216,4.216,0,0,1,56.9,84.6a4.428,4.428,0,0,1-1.242-3.1A4.377,4.377,0,0,1,59.094,77.2a4.261,4.261,0,0,1,4.8,2.635,4.478,4.478,0,0,1-1.566,5.317,4.183,4.183,0,0,1-2.385.747m-1.9-4.392A2.061,2.061,0,0,0,58.6,82.93a1.841,1.841,0,0,0,2.378.245,2.055,2.055,0,0,0,.707-2.443,1.89,1.89,0,0,0-2.117-1.185,1.978,1.978,0,0,0-1.535,1.96" transform="translate(13990.064 2768.992)" fill="#f5474b"/>
    <path id="Path_23553" data-name="Path 23553" d="M12,36.5a3.329,3.329,0,0,1-1.735-.489A3.507,3.507,0,0,1,8.6,32.942V32.7a10.348,10.348,0,0,1-3.386-1.993l-.1.062a3.319,3.319,0,0,1-2.614.356A3.409,3.409,0,0,1,.445,29.463a3.608,3.608,0,0,1-.329-2.628,3.519,3.519,0,0,1,1.559-2.14l.009-.005.073-.044a11.151,11.151,0,0,1,0-4.284l-.073-.044-.007,0A3.518,3.518,0,0,1,.113,18.168a3.607,3.607,0,0,1,.336-2.639A3.408,3.408,0,0,1,2.5,13.874a3.319,3.319,0,0,1,2.612.358l.1.062a10.348,10.348,0,0,1,3.387-2v-.241a3.507,3.507,0,0,1,1.66-3.068,3.321,3.321,0,0,1,3.47,0,3.506,3.506,0,0,1,1.66,3.068V12.3a10.349,10.349,0,0,1,3.386,1.993l.1-.062a3.319,3.319,0,0,1,2.615-.357,3.408,3.408,0,0,1,2.055,1.66,3.608,3.608,0,0,1,.331,2.633,3.519,3.519,0,0,1-1.559,2.14l-.008.005-.073.044a11.157,11.157,0,0,1,0,4.284l.073.044.007,0a3.519,3.519,0,0,1,1.564,2.145,3.609,3.609,0,0,1-.335,2.636A3.408,3.408,0,0,1,21.5,31.125a3.318,3.318,0,0,1-2.613-.358l-.1-.062a10.346,10.346,0,0,1-3.388,2v.242a3.506,3.506,0,0,1-1.66,3.068A3.328,3.328,0,0,1,12,36.5M5.381,28.011a1.181,1.181,0,0,1,.86.371,7.99,7.99,0,0,0,3.84,2.266,1.2,1.2,0,0,1,.9,1.162v1.145c0,.01,0,.021,0,.031a1.1,1.1,0,0,0,.513.972.97.97,0,0,0,1.013,0,1.1,1.1,0,0,0,.513-.972c0-.01,0-.02,0-.031V31.81a1.2,1.2,0,0,1,.9-1.162,7.989,7.989,0,0,0,3.842-2.269,1.18,1.18,0,0,1,1.472-.2l.879.534a.938.938,0,0,0,.748.1,1.017,1.017,0,0,0,.611-.5l.006-.011a1.189,1.189,0,0,0-.388-1.574l-.813-.494a1.2,1.2,0,0,1-.529-1.356,8.744,8.744,0,0,0,0-4.773,1.2,1.2,0,0,1,.529-1.356l.813-.494a1.19,1.19,0,0,0,.387-1.57l-.005-.01a1.017,1.017,0,0,0-.611-.5.939.939,0,0,0-.749.1l-.878.533a1.18,1.18,0,0,1-1.472-.2,7.992,7.992,0,0,0-3.84-2.266,1.2,1.2,0,0,1-.9-1.162V12.043c0-.01,0-.021,0-.031a1.1,1.1,0,0,0-.513-.972.97.97,0,0,0-1.013,0,1.1,1.1,0,0,0-.513.972c0,.01,0,.021,0,.031v1.144a1.2,1.2,0,0,1-.9,1.162,7.993,7.993,0,0,0-3.84,2.27,1.18,1.18,0,0,1-1.473.2l-.879-.534a.938.938,0,0,0-.748-.1,1.017,1.017,0,0,0-.611.5l-.006.011a1.189,1.189,0,0,0,.387,1.574l.814.494a1.2,1.2,0,0,1,.53,1.356,8.739,8.739,0,0,0,0,4.773,1.2,1.2,0,0,1-.53,1.356l-.813.494a1.19,1.19,0,0,0-.386,1.57l.005.01a1.016,1.016,0,0,0,.611.5.937.937,0,0,0,.749-.1l.877-.532a1.178,1.178,0,0,1,.612-.172" transform="translate(14038 2828)" fill="#171725"/>
  </g>
</svg>
