<svg xmlns="http://www.w3.org/2000/svg" width="24" height="16.667" viewBox="0 0 24 16.667">
  <g id="Group_703" data-name="Group 703" transform="translate(-28 -582.249)">
    <path id="Path_23564" data-name="Path 23564" d="M50.791,585.839v9.8H48.83l-3.191-2.28-.685-2.235.183-3.876,4.424-1.414Z" fill="#f5474b"/>
    <path id="Path_23557" data-name="Path 23557" d="M93.064,517.314H84.954a6.587,6.587,0,0,1-3.017-.371,3.38,3.38,0,0,1-1.485-1.488,6.633,6.633,0,0,1-.37-3.025v-6.9a6.633,6.633,0,0,1,.37-3.025,3.381,3.381,0,0,1,1.485-1.489,6.59,6.59,0,0,1,3.017-.371h8.111a6.589,6.589,0,0,1,3.017.371,3.381,3.381,0,0,1,1.485,1.489,5.086,5.086,0,0,1,.369,2.346L99.68,503.8c1.113-.669,1.725-1.038,2.434-.972a2.169,2.169,0,0,1,1.547.878c.421.574.421,1.248.421,2.592v5.356c0,1.344,0,2.018-.421,2.592a2.169,2.169,0,0,1-1.547.878c-.708.066-1.321-.3-2.434-.972l-1.744-1.049a5.087,5.087,0,0,1-.369,2.347,3.381,3.381,0,0,1-1.485,1.488,6.588,6.588,0,0,1-3.017.371m-8.111-14.782a6.264,6.264,0,0,0-2.164.166,1.51,1.51,0,0,0-.663.665,6.3,6.3,0,0,0-.165,2.169v6.9a6.3,6.3,0,0,0,.165,2.169,1.51,1.51,0,0,0,.663.665,6.264,6.264,0,0,0,2.164.166h8.111a6.263,6.263,0,0,0,2.164-.166,1.509,1.509,0,0,0,.663-.665,6.306,6.306,0,0,0,.165-2.169v-.971c0-.01,0-.02,0-.03v-4.9c0-.01,0-.02,0-.03v-.971a6.3,6.3,0,0,0-.165-2.169,1.509,1.509,0,0,0-.663-.665,6.264,6.264,0,0,0-2.164-.166Zm12.983,8.379,2.71,1.63a7.983,7.983,0,0,0,1.31.709.29.29,0,0,0,.177-.1,8.022,8.022,0,0,0,.067-1.491V506.3a8.023,8.023,0,0,0-.067-1.491.289.289,0,0,0-.177-.1,7.963,7.963,0,0,0-1.31.709l-2.71,1.63Zm4.193,2.25h0" transform="translate(-52.081 81.602)" fill="#171725"/>
  </g>
</svg>
