<svg xmlns="http://www.w3.org/2000/svg" width="24" height="21.333" viewBox="0 0 24 21.333">
  <g id="Group_700" data-name="Group 700" transform="translate(-14618.081 -3271.98)">
    <path id="Path_23554" data-name="Path 23554" d="M656,524.07H652.68a3.4,3.4,0,0,1-1.336-.152,2.013,2.013,0,0,1-1.108-1.084,5.573,5.573,0,0,1,0-2.616,2.014,2.014,0,0,1,1.107-1.084,3.4,3.4,0,0,1,1.336-.152H656a3.4,3.4,0,0,1,1.336.152,2.013,2.013,0,0,1,1.108,1.084,5.573,5.573,0,0,1,0,2.616,2.013,2.013,0,0,1-1.107,1.084,3.4,3.4,0,0,1-1.336.152m-3.945-1.858a5.793,5.793,0,0,0,.627.017H656a5.788,5.788,0,0,0,.627-.017.165.165,0,0,0,.075-.073,10.874,10.874,0,0,0,0-1.227.163.163,0,0,0-.075-.073,5.767,5.767,0,0,0-.627-.017H652.68a5.772,5.772,0,0,0-.627.017.164.164,0,0,0-.075.073,10.907,10.907,0,0,0,0,1.227.164.164,0,0,0,.075.074" transform="translate(13975.743 2761.122)" fill="#f5474b"/>
    <path id="Path_23555" data-name="Path 23555" d="M605.975,500.982h-1.106a.921.921,0,1,1,0-1.841h1.106c3.906,0,5.867,0,6.887-1s1.021-2.919,1.021-6.744v-6.5a.94.94,0,0,1,1.88,0v6.5c0,4.333,0,6.507-1.571,8.046s-3.792,1.538-8.217,1.538m-5.179-.08-.072,0a6.17,6.17,0,0,1-4.071-1.455c-1.571-1.538-1.571-3.713-1.571-8.046v-6.5a.94.94,0,0,1,1.88,0v6.5c0,3.825,0,5.745,1.02,6.744a4.306,4.306,0,0,0,2.884.921.92.92,0,0,1-.07,1.838" transform="translate(14024.658 2792.332)" fill="#171725"/>
    <path id="Path_23556" data-name="Path 23556" d="M600.929,450.153h-17.7c-1.176,0-1.953,0-2.553-.587s-.6-1.348-.6-2.5,0-1.913.6-2.5,1.377-.587,2.553-.587h8.848a.921.921,0,1,1,0,1.841h-8.848a7.05,7.05,0,0,0-1.217.054,12.9,12.9,0,0,0,0,2.382,7.067,7.067,0,0,0,1.217.054h17.7a7.066,7.066,0,0,0,1.217-.054,12.888,12.888,0,0,0,0-2.383,7.066,7.066,0,0,0-1.217-.054H596.5a.921.921,0,1,1,0-1.841h4.424c1.176,0,1.954,0,2.553.587s.6,1.348.6,2.5,0,1.913-.6,2.5-1.376.587-2.553.587" transform="translate(14038 2828)" fill="#171725"/>
  </g>
</svg>
