<svg xmlns="http://www.w3.org/2000/svg" width="23.999" height="23.999" viewBox="0 0 23.999 23.999">
  <g id="Group_702" data-name="Group 702" transform="translate(-28 -414.249)">
    <g id="Group_24" data-name="Group 24" transform="translate(28 414.249)">
      <path id="Combined_Shape" data-name="Combined Shape" d="M1.091,24A1.092,1.092,0,0,1,0,22.909V20.727a8.727,8.727,0,0,1,17.455,0v2.182A1.092,1.092,0,0,1,16.364,24Zm1.091-3.272v1.091H15.273V20.727a6.546,6.546,0,1,0-13.091,0ZM3.272,5.455a5.454,5.454,0,1,1,5.455,5.454A5.461,5.461,0,0,1,3.272,5.455Zm2.182,0A3.273,3.273,0,1,0,8.727,2.182,3.277,3.277,0,0,0,5.454,5.455Z" fill="#171725"/>
    </g>
    <path id="Path_226" data-name="Path 226" d="M1.091,2.182A1.091,1.091,0,0,1,1.091,0H7.636a1.091,1.091,0,0,1,0,2.182Z" transform="translate(43.272 424.067)" fill="#f5474b"/>
    <path id="Path_226-2" data-name="Path 226" d="M1.091,2.182A1.091,1.091,0,0,1,1.091,0H7.636a1.091,1.091,0,0,1,0,2.182Z" transform="translate(46.545 429.521) rotate(-90)" fill="#f5474b"/>
  </g>
</svg>
