<svg xmlns="http://www.w3.org/2000/svg" width="20" height="13.882" viewBox="0 0 20 13.882">
  <path id="Union_4" data-name="Union 4" d="M4.064,13.882a5.513,5.513,0,0,1-2.514-.308A2.791,2.791,0,0,1,.312,12.333,5.442,5.442,0,0,1,0,9.818V4.069a5.454,5.454,0,0,1,.312-2.52A2.792,2.792,0,0,1,1.55.308,5.513,5.513,0,0,1,4.064,0h6.754a5.531,5.531,0,0,1,2.516.308,2.781,2.781,0,0,1,1.233,1.241,4.22,4.22,0,0,1,.31,1.954l1.455-.873c.928-.56,1.438-.868,2.026-.813a1.822,1.822,0,0,1,1.291.736C20,3.031,20,3.591,20,4.711V9.176c0,1.115,0,1.68-.351,2.158a1.816,1.816,0,0,1-1.291.73c-.588.055-1.1-.253-2.026-.807l-1.455-.879a4.223,4.223,0,0,1-.31,1.955,2.781,2.781,0,0,1-1.233,1.241,5.531,5.531,0,0,1-2.516.308Z" fill="#fff"/>
</svg>
